# xmcd
#
# Track frame offsets: 
#        150
#        13337
#        26097
#        40120
#        55065
#        67330
#        81965
#        95180
#        109567
#        121470
#
# Disc length: 1791 seconds
#
# Revision: 0
# Processed by: cddbd v1.5PL3 Copyright (c) Steve Scherf et al.
# Submitted via: ExactAudioCopy v0.90b4
#
DISCID=8b06fd0a
DTITLE=Sweethearts Of The Rodeo and The O'Kanes - Two Of A Kind
DYEAR=1900
DGENRE=Country
TTITLE0=Chains Of Gold (Sweethearts Of The Rodeo)
TTITLE1=I Can't Stop My Heart From Loving You (The O'Kanes)
TTITLE2=Midnight Girls-Sunset Town (Sweethearts Of The Rodeo)
TTITLE3=One True Love (The O'Kanes)
TTITLE4=Satisfy You (Sweethearts Of The Rodeo)
TTITLE5=Just Lovin' You (The O'Kanes)
TTITLE6=Blue To The Bone (Sweethearts Of The Rodeo)
TTITLE7=Daddies Need To Grow Up Too (The O'Kanes)
TTITLE8=I Feel Fine (Sweethearts Of The Rodeo)
TTITLE9=Oh Darlin' (Why Don't You Care For Me No More (The O'Kanes)
EXTD=
EXTT0=
EXTT1=
EXTT2=
EXTT3=
EXTT4=
EXTT5=
EXTT6=
EXTT7=
EXTT8=
EXTT9=
PLAYORDER=
